<svg width="20" height="20" viewBox="0 0 20 20" fill="none" xmlns="http://www.w3.org/2000/svg">
<path d="M10 11.2188C10.6731 11.2188 11.2188 10.6731 11.2188 10C11.2188 9.3269 10.6731 8.78125 10 8.78125C9.3269 8.78125 8.78125 9.3269 8.78125 10C8.78125 10.6731 9.3269 11.2188 10 11.2188Z" fill="#E4AF0A"/>
<path d="M14.2188 11.2188C14.8918 11.2188 15.4375 10.6731 15.4375 10C15.4375 9.3269 14.8918 8.78125 14.2188 8.78125C13.5457 8.78125 13 9.3269 13 10C13 10.6731 13.5457 11.2188 14.2188 11.2188Z" fill="#E4AF0A"/>
<path d="M5.78125 11.2188C6.45435 11.2188 7 10.6731 7 10C7 9.3269 6.45435 8.78125 5.78125 8.78125C5.10815 8.78125 4.5625 9.3269 4.5625 10C4.5625 10.6731 5.10815 11.2188 5.78125 11.2188Z" fill="#E4AF0A"/>
<path fill-rule="evenodd" clip-rule="evenodd" d="M0.25 10C0.25 4.61704 4.61704 0.25 10 0.25C15.383 0.25 19.75 4.61704 19.75 10C19.75 15.383 15.383 19.75 10 19.75C4.61704 19.75 0.25 15.383 0.25 10ZM10 1.75C5.44546 1.75 1.75 5.44546 1.75 10C1.75 14.5545 5.44546 18.25 10 18.25C14.5545 18.25 18.25 14.5545 18.25 10C18.25 5.44546 14.5545 1.75 10 1.75Z" fill="#E4AF0A"/>
</svg>
