<svg width="20" height="20" viewBox="0 0 20 20" fill="none" xmlns="http://www.w3.org/2000/svg">
<path fill-rule="evenodd" clip-rule="evenodd" d="M2.875 4.75C2.57663 4.75 2.29048 4.86853 2.0795 5.0795C1.86853 5.29048 1.75 5.57663 1.75 5.875V17.125C1.75 17.4234 1.86853 17.7095 2.0795 17.9205C2.29048 18.1315 2.57663 18.25 2.875 18.25H14.125C14.2727 18.25 14.419 18.2209 14.5555 18.1644C14.692 18.1078 14.816 18.025 14.9205 17.9205C15.025 17.816 15.1078 17.692 15.1644 17.5555C15.2209 17.419 15.25 17.2727 15.25 17.125V8.5C15.25 8.08579 15.5858 7.75 16 7.75C16.4142 7.75 16.75 8.08579 16.75 8.5V17.125C16.75 17.4697 16.6821 17.8111 16.5502 18.1295C16.4183 18.448 16.2249 18.7374 15.9812 18.9812C15.7374 19.2249 15.448 19.4183 15.1295 19.5502C14.8111 19.6821 14.4697 19.75 14.125 19.75H2.875C2.17881 19.75 1.51113 19.4734 1.01884 18.9812C0.526562 18.4889 0.25 17.8212 0.25 17.125V5.875C0.25 5.17881 0.526562 4.51113 1.01884 4.01884C1.51113 3.52656 2.17881 3.25 2.875 3.25H10.7256C11.1398 3.25 11.4756 3.58579 11.4756 4C11.4756 4.41421 11.1398 4.75 10.7256 4.75H2.875Z" fill="#E4AF0A"/>
<path d="M19.5596 0.496107C19.4912 0.420846 19.4081 0.360252 19.3155 0.31799C19.223 0.275727 19.1228 0.252672 19.021 0.250219C18.9193 0.247765 18.8181 0.265964 18.7236 0.303715C18.6291 0.341466 18.5433 0.397985 18.4712 0.469857L17.8914 1.04689C17.8211 1.11721 17.7816 1.21255 17.7816 1.31197C17.7816 1.41138 17.8211 1.50673 17.8914 1.57704L18.4229 2.10767C18.4578 2.14268 18.4992 2.17046 18.5448 2.18941C18.5904 2.20837 18.6393 2.21812 18.6887 2.21812C18.7381 2.21812 18.787 2.20837 18.8326 2.18941C18.8782 2.17046 18.9196 2.14268 18.9545 2.10767L19.5198 1.54517C19.8057 1.2597 19.8325 0.794701 19.5596 0.496107Z" fill="#E4AF0A"/>
<path d="M16.7191 2.21873L8.25725 10.6656C8.20594 10.7167 8.16865 10.7801 8.14896 10.8498L7.75756 12.0156C7.74818 12.0472 7.74752 12.0808 7.75564 12.1128C7.76375 12.1448 7.78035 12.174 7.80368 12.1973C7.82701 12.2206 7.85621 12.2372 7.88818 12.2453C7.92016 12.2535 7.95374 12.2528 7.98537 12.2434L9.15021 11.852C9.21989 11.8323 9.28334 11.795 9.33443 11.7437L17.7813 3.28091C17.8595 3.20193 17.9033 3.09531 17.9033 2.98419C17.9033 2.87308 17.8595 2.76646 17.7813 2.68748L17.3149 2.21873C17.2358 2.13987 17.1287 2.09558 17.017 2.09558C16.9053 2.09558 16.7982 2.13987 16.7191 2.21873Z" fill="#E4AF0A"/>
</svg>
