<svg width="18" height="22" viewBox="0 0 18 22" fill="none" xmlns="http://www.w3.org/2000/svg">
<path d="M9.75 7.25C9.75 6.83579 9.41421 6.5 9 6.5C8.58579 6.5 8.25 6.83579 8.25 7.25V17.75C8.25 18.1642 8.58579 18.5 9 18.5C9.41421 18.5 9.75 18.1642 9.75 17.75V7.25Z" fill="#E4AF0A"/>
<path d="M5.59824 6.50049C6.01219 6.4857 6.35975 6.80929 6.37453 7.22324L6.74953 17.7232C6.76432 18.1372 6.44073 18.4847 6.02678 18.4995C5.61283 18.5143 5.26527 18.1907 5.25049 17.7768L4.87549 7.27678C4.8607 6.86283 5.18429 6.51527 5.59824 6.50049Z" fill="#E4AF0A"/>
<path d="M13.1245 7.27678C13.1393 6.86283 12.8157 6.51527 12.4018 6.50049C11.9878 6.4857 11.6403 6.80929 11.6255 7.22324L11.2505 17.7232C11.2357 18.1372 11.5593 18.4847 11.9732 18.4995C12.3872 18.5143 12.7347 18.1907 12.7495 17.7768L13.1245 7.27678Z" fill="#E4AF0A"/>
<path fill-rule="evenodd" clip-rule="evenodd" d="M5.39143 1.65798C5.2975 1.88567 5.24945 2.12966 5.25 2.37596V3.5H0.75C0.335786 3.5 0 3.83579 0 4.25C0 4.66421 0.335786 5 0.75 5H1.54544L2.43875 19.293C2.5039 20.5196 3.429 21.5 4.68753 21.5H13.3125C14.583 21.5 15.4868 20.5108 15.5611 19.2958L16.4546 5H17.25C17.6642 5 18 4.66421 18 4.25C18 3.83579 17.6642 3.5 17.25 3.5H12.75V2.37612C12.7506 2.12976 12.7025 1.88572 12.6086 1.65798C12.5145 1.4299 12.3763 1.22267 12.2018 1.04821C12.0273 0.873754 11.8201 0.73551 11.592 0.641429C11.3643 0.547505 11.1203 0.499446 10.874 0.500005H7.12596C6.87966 0.499446 6.63567 0.547504 6.40798 0.641429C6.1799 0.735511 5.97267 0.873756 5.79821 1.04821C5.62376 1.22267 5.48551 1.4299 5.39143 1.65798ZM7.12281 2C7.07381 1.99986 7.02527 2.0094 6.97997 2.02809C6.93468 2.04677 6.89352 2.07423 6.85887 2.10887C6.82423 2.14352 6.79677 2.18468 6.77809 2.22997C6.7594 2.27527 6.74986 2.32381 6.75 2.37281L6.75 2.375V3.5H11.25V2.375L11.25 2.37281C11.2502 2.32381 11.2406 2.27527 11.2219 2.22997C11.2032 2.18467 11.1758 2.14352 11.1411 2.10887C11.1065 2.07423 11.0653 2.04677 11.02 2.02809C10.9747 2.0094 10.9262 1.99986 10.8772 2L10.875 2H7.125L7.12281 2ZM6 5L5.9973 5H3.04836L3.93606 19.2032L3.93654 19.2115C3.96247 19.7163 4.29759 20 4.68753 20H13.3125C13.6986 20 14.0322 19.7226 14.0639 19.2043L14.9517 5H12.0027L12 5L11.9973 5H6.00271L6 5Z" fill="#E4AF0A"/>
</svg>
